<svg width="144" height="52" viewBox="0 0 144 52" fill="none" xmlns="http://www.w3.org/2000/svg">
<path d="M64.2561 26.4329L44.363 6.82048L51.114 0.561986L76 26.4329L50.129 51.3189L44.363 45.0604L64.2561 26.4329Z" fill="white"/>
<path d="M0 24.886L25.8709 -5.59446e-06L50.7569 25.8709L24.886 50.7569L0 24.886Z" fill="#22C55E"/>
<path d="M81.5044 20.625H83.7094V33H81.5044V20.625ZM89.0419 33L83.8894 26.61L88.8169 20.625H91.2919L86.4094 26.61L91.6519 33H89.0419ZM101.482 32.415C100.747 32.94 99.6291 33.2025 98.1291 33.2025C96.6591 33.2025 95.5491 32.94 94.7991 32.415C94.0641 31.89 93.5916 31.2975 93.3816 30.6375C93.1866 29.9775 93.0891 29.2725 93.0891 28.5225V20.625H95.2716V28.41C95.2716 28.77 95.3091 29.1225 95.3841 29.4675C95.5191 30.0075 95.8266 30.4275 96.3066 30.7275C96.7866 31.0125 97.3941 31.155 98.1291 31.155C98.8941 31.155 99.5166 31.0125 99.9966 30.7275C100.477 30.4275 100.792 30.0075 100.942 29.4675C100.987 29.1525 101.009 28.8 101.009 28.41V20.625H103.214V28.5225C103.214 29.2725 103.109 29.9775 102.899 30.6375C102.704 31.2975 102.232 31.89 101.482 32.415ZM105.885 33V20.625H109.935C113.325 20.625 115.02 21.84 115.02 24.27C115.02 26.025 114.105 27.21 112.275 27.825L115.38 33H112.883L110.048 28.185C109.823 28.2 109.5 28.2075 109.08 28.2075C108.87 28.2075 108.54 28.1925 108.09 28.1625V33H105.885ZM109.71 22.605H108.09V26.16C108.465 26.205 108.825 26.2275 109.17 26.2275C110.31 26.2275 111.195 26.1075 111.825 25.8675C112.47 25.6125 112.793 25.095 112.793 24.315C112.793 23.64 112.515 23.19 111.96 22.965C111.42 22.725 110.67 22.605 109.71 22.605Z" fill="white"/>
<path d="M125.581 32.415C124.846 32.94 123.729 33.2025 122.229 33.2025C120.759 33.2025 119.649 32.94 118.899 32.415C118.164 31.89 117.691 31.2975 117.481 30.6375C117.286 29.9775 117.189 29.2725 117.189 28.5225V20.625H119.371V28.41C119.371 28.77 119.409 29.1225 119.484 29.4675C119.619 30.0075 119.926 30.4275 120.406 30.7275C120.886 31.0125 121.494 31.155 122.229 31.155C122.994 31.155 123.616 31.0125 124.096 30.7275C124.576 30.4275 124.891 30.0075 125.041 29.4675C125.086 29.1525 125.109 28.8 125.109 28.41V20.625H127.314V28.5225C127.314 29.2725 127.209 29.9775 126.999 30.6375C126.804 31.2975 126.331 31.89 125.581 32.415ZM129.985 33V20.625H132.932L136.285 27.3975L139.705 20.625H142.495V33H140.312V23.6625L137.185 29.8275H135.295L132.19 23.6625V33H129.985Z" fill="#22C55E"/>
</svg>
