<svg width="130" height="134" viewBox="0 0 130 134" fill="none" xmlns="http://www.w3.org/2000/svg">
<g filter="url(#filter0_d_10_210)">
<path d="M19.1895 87.6716C17.6936 83.5142 19.8511 78.9314 24.0084 77.4355L44.66 70.0045C48.8173 68.5086 53.4002 70.6661 54.8961 74.8235L62.327 95.475C63.8229 99.6323 61.6654 104.215 57.5081 105.711L36.8565 113.142C32.6992 114.638 28.1163 112.48 26.6204 108.323L19.1895 87.6716Z" fill="#D9D9D9"/>
</g>
<g filter="url(#filter1_d_10_210)">
<path d="M2.96434 39.3605C1.46843 35.2032 3.62594 30.6204 7.78327 29.1244L28.4348 21.6935C32.5921 20.1976 37.175 22.3551 38.6709 26.5124L46.1018 47.164C47.5977 51.3213 45.4402 55.9042 41.2829 57.4001L20.6314 64.831C16.474 66.3269 11.8912 64.1694 10.3953 60.0121L2.96434 39.3605Z" fill="#22C55E"/>
</g>
<g filter="url(#filter2_d_10_210)">
<path d="M66.3306 68.811C64.8347 64.6536 66.9922 60.0708 71.1496 58.5748L91.8011 51.1439C95.9584 49.648 100.541 51.8055 102.037 55.9629L109.468 76.6144C110.964 80.7717 108.807 85.3546 104.649 86.8505L83.9977 94.2814C79.8403 95.7773 75.2575 93.6198 73.7616 89.4625L66.3306 68.811Z" fill="#D9D9D9"/>
</g>
<g filter="url(#filter3_d_10_210)">
<path d="M50.1055 20.4994C48.6096 16.3421 50.7671 11.7592 54.9244 10.2633L75.5759 2.8324C79.7333 1.33649 84.3161 3.494 85.8121 7.65133L93.243 28.3029C94.7389 32.4602 92.5814 37.0431 88.424 38.539L67.7725 45.9699C63.6152 47.4658 59.0323 45.3083 57.5364 41.151L50.1055 20.4994Z" fill="#D9D9D9"/>
</g>
<defs>
<filter id="filter0_d_10_210" x="18.7148" y="69.5298" width="64.0868" height="64.0869" filterUnits="userSpaceOnUse" color-interpolation-filters="sRGB">
<feFlood flood-opacity="0" result="BackgroundImageFix"/>
<feColorMatrix in="SourceAlpha" type="matrix" values="0 0 0 0 0 0 0 0 0 0 0 0 0 0 0 0 0 0 127 0" result="hardAlpha"/>
<feOffset dx="16" dy="16"/>
<feGaussianBlur stdDeviation="2"/>
<feComposite in2="hardAlpha" operator="out"/>
<feColorMatrix type="matrix" values="0 0 0 0 0.516667 0 0 0 0 0.516667 0 0 0 0 0.516667 0 0 0 0.25 0"/>
<feBlend mode="normal" in2="BackgroundImageFix" result="effect1_dropShadow_10_210"/>
<feBlend mode="normal" in="SourceGraphic" in2="effect1_dropShadow_10_210" result="shape"/>
</filter>
<filter id="filter1_d_10_210" x="2.48969" y="21.2188" width="64.0868" height="64.0869" filterUnits="userSpaceOnUse" color-interpolation-filters="sRGB">
<feFlood flood-opacity="0" result="BackgroundImageFix"/>
<feColorMatrix in="SourceAlpha" type="matrix" values="0 0 0 0 0 0 0 0 0 0 0 0 0 0 0 0 0 0 127 0" result="hardAlpha"/>
<feOffset dx="16" dy="16"/>
<feGaussianBlur stdDeviation="2"/>
<feComposite in2="hardAlpha" operator="out"/>
<feColorMatrix type="matrix" values="0 0 0 0 0.368212 0 0 0 0 0.695833 0 0 0 0 0.509058 0 0 0 0.5 0"/>
<feBlend mode="normal" in2="BackgroundImageFix" result="effect1_dropShadow_10_210"/>
<feBlend mode="normal" in="SourceGraphic" in2="effect1_dropShadow_10_210" result="shape"/>
</filter>
<filter id="filter2_d_10_210" x="65.856" y="50.6692" width="64.0869" height="64.0869" filterUnits="userSpaceOnUse" color-interpolation-filters="sRGB">
<feFlood flood-opacity="0" result="BackgroundImageFix"/>
<feColorMatrix in="SourceAlpha" type="matrix" values="0 0 0 0 0 0 0 0 0 0 0 0 0 0 0 0 0 0 127 0" result="hardAlpha"/>
<feOffset dx="16" dy="16"/>
<feGaussianBlur stdDeviation="2"/>
<feComposite in2="hardAlpha" operator="out"/>
<feColorMatrix type="matrix" values="0 0 0 0 0.516667 0 0 0 0 0.516667 0 0 0 0 0.516667 0 0 0 0.25 0"/>
<feBlend mode="normal" in2="BackgroundImageFix" result="effect1_dropShadow_10_210"/>
<feBlend mode="normal" in="SourceGraphic" in2="effect1_dropShadow_10_210" result="shape"/>
</filter>
<filter id="filter3_d_10_210" x="49.6308" y="2.35767" width="64.0869" height="64.0869" filterUnits="userSpaceOnUse" color-interpolation-filters="sRGB">
<feFlood flood-opacity="0" result="BackgroundImageFix"/>
<feColorMatrix in="SourceAlpha" type="matrix" values="0 0 0 0 0 0 0 0 0 0 0 0 0 0 0 0 0 0 127 0" result="hardAlpha"/>
<feOffset dx="16" dy="16"/>
<feGaussianBlur stdDeviation="2"/>
<feComposite in2="hardAlpha" operator="out"/>
<feColorMatrix type="matrix" values="0 0 0 0 0.516667 0 0 0 0 0.516667 0 0 0 0 0.516667 0 0 0 0.25 0"/>
<feBlend mode="normal" in2="BackgroundImageFix" result="effect1_dropShadow_10_210"/>
<feBlend mode="normal" in="SourceGraphic" in2="effect1_dropShadow_10_210" result="shape"/>
</filter>
</defs>
</svg>
